<mxfile host="app.diagrams.net" modified="2021-10-30T06:55:53.241Z" agent="5.0 (Windows NT 10.0; Win64; x64) AppleWebKit/537.36 (KHTML, like Gecko) Chrome/95.0.4638.54 Safari/537.36" etag="K54I24Ns9ZYLEs929Dl4" version="15.5.9" type="github">
  <diagram id="hdC_E3QPs4JPYwsAorTU" name="Page-1">
    <mxGraphModel dx="1173" dy="438" grid="1" gridSize="10" guides="1" tooltips="1" connect="1" arrows="1" fold="1" page="1" pageScale="1" pageWidth="3300" pageHeight="2339" math="0" shadow="0">
      <root>
        <mxCell id="0" />
        <mxCell id="1" parent="0" />
        <mxCell id="P0Eb2PS_qX3mCFITCUno-1" value="&lt;h1&gt;&lt;span style=&quot;color: rgb(33 , 47 , 62) ; font-family: &amp;#34;ember&amp;#34; , , &amp;#34;blinkmacsystemfont&amp;#34; , &amp;#34;segoe ui&amp;#34; , &amp;#34;roboto&amp;#34; , &amp;#34;oxygen&amp;#34; , &amp;#34;ubuntu&amp;#34; , &amp;#34;cantarell&amp;#34; , &amp;#34;open sans&amp;#34; , &amp;#34;helvetica neue&amp;#34; , sans-serif ; font-size: 16px ; font-weight: 400&quot;&gt;Let&#39;s design a system that takes readings from a large number of temperature sensors sprinkled throughout a large geographic area, like Maharastra, and presents a couple of views of that data.&lt;/span&gt;&lt;br&gt;&lt;/h1&gt;&lt;div&gt;&lt;span style=&quot;color: rgb(33 , 47 , 62) ; font-family: &amp;#34;ember&amp;#34; , , &amp;#34;blinkmacsystemfont&amp;#34; , &amp;#34;segoe ui&amp;#34; , &amp;#34;roboto&amp;#34; , &amp;#34;oxygen&amp;#34; , &amp;#34;ubuntu&amp;#34; , &amp;#34;cantarell&amp;#34; , &amp;#34;open sans&amp;#34; , &amp;#34;helvetica neue&amp;#34; , sans-serif ; font-size: 16px ; font-weight: 400&quot;&gt;- Multiple sensors&lt;/span&gt;&lt;/div&gt;&lt;div&gt;&lt;span style=&quot;color: rgb(33 , 47 , 62) ; font-family: &amp;#34;ember&amp;#34; , , &amp;#34;blinkmacsystemfont&amp;#34; , &amp;#34;segoe ui&amp;#34; , &amp;#34;roboto&amp;#34; , &amp;#34;oxygen&amp;#34; , &amp;#34;ubuntu&amp;#34; , &amp;#34;cantarell&amp;#34; , &amp;#34;open sans&amp;#34; , &amp;#34;helvetica neue&amp;#34; , sans-serif ; font-size: 16px ; font-weight: 400&quot;&gt;- Per sensor rate: HTTP - 0.1 datapoints/sec&lt;/span&gt;&lt;/div&gt;&lt;div&gt;&lt;span style=&quot;color: rgb(33 , 47 , 62) ; font-family: &amp;#34;ember&amp;#34; , , &amp;#34;blinkmacsystemfont&amp;#34; , &amp;#34;segoe ui&amp;#34; , &amp;#34;roboto&amp;#34; , &amp;#34;oxygen&amp;#34; , &amp;#34;ubuntu&amp;#34; , &amp;#34;cantarell&amp;#34; , &amp;#34;open sans&amp;#34; , &amp;#34;helvetica neue&amp;#34; , sans-serif ; font-size: 16px ; font-weight: 400&quot;&gt;- 0.1M datapoints per sec average&lt;/span&gt;&lt;/div&gt;&lt;div&gt;&lt;span style=&quot;color: rgb(33 , 47 , 62) ; font-family: &amp;#34;ember&amp;#34; , , &amp;#34;blinkmacsystemfont&amp;#34; , &amp;#34;segoe ui&amp;#34; , &amp;#34;roboto&amp;#34; , &amp;#34;oxygen&amp;#34; , &amp;#34;ubuntu&amp;#34; , &amp;#34;cantarell&amp;#34; , &amp;#34;open sans&amp;#34; , &amp;#34;helvetica neue&amp;#34; , sans-serif ; font-size: 16px ; font-weight: 400&quot;&gt;- 1M - peak&lt;/span&gt;&lt;/div&gt;&lt;span style=&quot;color: rgb(33 , 47 , 62) ; font-family: &amp;#34;ember&amp;#34; , , &amp;#34;blinkmacsystemfont&amp;#34; , &amp;#34;segoe ui&amp;#34; , &amp;#34;roboto&amp;#34; , &amp;#34;oxygen&amp;#34; , &amp;#34;ubuntu&amp;#34; , &amp;#34;cantarell&amp;#34; , &amp;#34;open sans&amp;#34; , &amp;#34;helvetica neue&amp;#34; , sans-serif ; font-size: 16px&quot;&gt;- A bitmap/per sensor that shows the most recent temp map of the entire area . &lt;br&gt;- Mini &amp;amp; max over a time period - a day/ a year â€”&amp;gt; system might stay in operation for couple of years&lt;/span&gt;&lt;div&gt;&lt;span style=&quot;color: rgb(33 , 47 , 62) ; font-family: &amp;#34;ember&amp;#34; , , &amp;#34;blinkmacsystemfont&amp;#34; , &amp;#34;segoe ui&amp;#34; , &amp;#34;roboto&amp;#34; , &amp;#34;oxygen&amp;#34; , &amp;#34;ubuntu&amp;#34; , &amp;#34;cantarell&amp;#34; , &amp;#34;open sans&amp;#34; , &amp;#34;helvetica neue&amp;#34; , sans-serif ; font-size: 16px ; font-weight: 400&quot;&gt;- data: {long, lat, temp} - 60Bytes&lt;/span&gt;&lt;/div&gt;&lt;div&gt;&lt;span style=&quot;color: rgb(33 , 47 , 62) ; font-family: &amp;#34;ember&amp;#34; , , &amp;#34;blinkmacsystemfont&amp;#34; , &amp;#34;segoe ui&amp;#34; , &amp;#34;roboto&amp;#34; , &amp;#34;oxygen&amp;#34; , &amp;#34;ubuntu&amp;#34; , &amp;#34;cantarell&amp;#34; , &amp;#34;open sans&amp;#34; , &amp;#34;helvetica neue&amp;#34; , sans-serif ; font-size: 16px ; font-weight: 400&quot;&gt;- 6 MB/Sec&lt;/span&gt;&lt;/div&gt;&lt;div&gt;&lt;span style=&quot;color: rgb(33 , 47 , 62) ; font-family: &amp;#34;ember&amp;#34; , , &amp;#34;blinkmacsystemfont&amp;#34; , &amp;#34;segoe ui&amp;#34; , &amp;#34;roboto&amp;#34; , &amp;#34;oxygen&amp;#34; , &amp;#34;ubuntu&amp;#34; , &amp;#34;cantarell&amp;#34; , &amp;#34;open sans&amp;#34; , &amp;#34;helvetica neue&amp;#34; , sans-serif ; font-size: 16px ; font-weight: 400&quot;&gt;&lt;br&gt;&lt;/span&gt;&lt;/div&gt;&lt;div&gt;&lt;span style=&quot;color: rgb(33 , 47 , 62) ; font-family: &amp;#34;ember&amp;#34; , , &amp;#34;blinkmacsystemfont&amp;#34; , &amp;#34;segoe ui&amp;#34; , &amp;#34;roboto&amp;#34; , &amp;#34;oxygen&amp;#34; , &amp;#34;ubuntu&amp;#34; , &amp;#34;cantarell&amp;#34; , &amp;#34;open sans&amp;#34; , &amp;#34;helvetica neue&amp;#34; , sans-serif ; font-size: 16px ; font-weight: 400&quot;&gt;- HA&lt;/span&gt;&lt;/div&gt;&lt;div&gt;&lt;span style=&quot;color: rgb(33 , 47 , 62) ; font-family: &amp;#34;ember&amp;#34; , , &amp;#34;blinkmacsystemfont&amp;#34; , &amp;#34;segoe ui&amp;#34; , &amp;#34;roboto&amp;#34; , &amp;#34;oxygen&amp;#34; , &amp;#34;ubuntu&amp;#34; , &amp;#34;cantarell&amp;#34; , &amp;#34;open sans&amp;#34; , &amp;#34;helvetica neue&amp;#34; , sans-serif ; font-size: 16px ; font-weight: 400&quot;&gt;&lt;br&gt;&lt;/span&gt;&lt;/div&gt;&lt;div&gt;&lt;span style=&quot;color: rgb(33 , 47 , 62) ; font-family: &amp;#34;ember&amp;#34; , , &amp;#34;blinkmacsystemfont&amp;#34; , &amp;#34;segoe ui&amp;#34; , &amp;#34;roboto&amp;#34; , &amp;#34;oxygen&amp;#34; , &amp;#34;ubuntu&amp;#34; , &amp;#34;cantarell&amp;#34; , &amp;#34;open sans&amp;#34; , &amp;#34;helvetica neue&amp;#34; , sans-serif ; font-size: 16px&quot;&gt;~ 100,000 sq mi&lt;br&gt;~&amp;nbsp;&lt;/span&gt;&lt;/div&gt;&lt;div&gt;&lt;span style=&quot;color: rgb(33 , 47 , 62) ; font-family: &amp;#34;ember&amp;#34; , , &amp;#34;blinkmacsystemfont&amp;#34; , &amp;#34;segoe ui&amp;#34; , &amp;#34;roboto&amp;#34; , &amp;#34;oxygen&amp;#34; , &amp;#34;ubuntu&amp;#34; , &amp;#34;cantarell&amp;#34; , &amp;#34;open sans&amp;#34; , &amp;#34;helvetica neue&amp;#34; , sans-serif ; font-size: 16px&quot;&gt;10^6 sensor - 10 sensors/mile&lt;/span&gt;&lt;span style=&quot;color: rgb(33 , 47 , 62) ; font-family: &amp;#34;ember&amp;#34; , , &amp;#34;blinkmacsystemfont&amp;#34; , &amp;#34;segoe ui&amp;#34; , &amp;#34;roboto&amp;#34; , &amp;#34;oxygen&amp;#34; , &amp;#34;ubuntu&amp;#34; , &amp;#34;cantarell&amp;#34; , &amp;#34;open sans&amp;#34; , &amp;#34;helvetica neue&amp;#34; , sans-serif ; font-size: 16px ; font-weight: 400&quot;&gt;&lt;br&gt;&lt;/span&gt;&lt;/div&gt;&lt;div&gt;&lt;span style=&quot;color: rgb(33 , 47 , 62) ; font-family: &amp;#34;ember&amp;#34; , , &amp;#34;blinkmacsystemfont&amp;#34; , &amp;#34;segoe ui&amp;#34; , &amp;#34;roboto&amp;#34; , &amp;#34;oxygen&amp;#34; , &amp;#34;ubuntu&amp;#34; , &amp;#34;cantarell&amp;#34; , &amp;#34;open sans&amp;#34; , &amp;#34;helvetica neue&amp;#34; , sans-serif ; font-size: 16px&quot;&gt;&lt;br&gt;&lt;/span&gt;&lt;/div&gt;&lt;div&gt;&lt;span style=&quot;color: rgb(33 , 47 , 62) ; font-family: &amp;#34;ember&amp;#34; , , &amp;#34;blinkmacsystemfont&amp;#34; , &amp;#34;segoe ui&amp;#34; , &amp;#34;roboto&amp;#34; , &amp;#34;oxygen&amp;#34; , &amp;#34;ubuntu&amp;#34; , &amp;#34;cantarell&amp;#34; , &amp;#34;open sans&amp;#34; , &amp;#34;helvetica neue&amp;#34; , sans-serif ; font-size: 16px&quot;&gt;&lt;br&gt;&lt;/span&gt;&lt;/div&gt;" style="text;html=1;strokeColor=none;fillColor=none;spacing=5;spacingTop=-20;whiteSpace=wrap;overflow=hidden;rounded=0;" vertex="1" parent="1">
          <mxGeometry x="90" y="50" width="430" height="530" as="geometry" />
        </mxCell>
        <mxCell id="P0Eb2PS_qX3mCFITCUno-8" style="edgeStyle=orthogonalEdgeStyle;rounded=0;orthogonalLoop=1;jettySize=auto;html=1;entryX=0;entryY=0.25;entryDx=0;entryDy=0;" edge="1" parent="1" source="P0Eb2PS_qX3mCFITCUno-2" target="P0Eb2PS_qX3mCFITCUno-6">
          <mxGeometry relative="1" as="geometry" />
        </mxCell>
        <mxCell id="P0Eb2PS_qX3mCFITCUno-10" value="HTTP" style="edgeLabel;html=1;align=center;verticalAlign=middle;resizable=0;points=[];" vertex="1" connectable="0" parent="P0Eb2PS_qX3mCFITCUno-8">
          <mxGeometry x="0.3926" y="1" relative="1" as="geometry">
            <mxPoint as="offset" />
          </mxGeometry>
        </mxCell>
        <mxCell id="P0Eb2PS_qX3mCFITCUno-2" value="Sensor" style="rounded=0;whiteSpace=wrap;html=1;" vertex="1" parent="1">
          <mxGeometry x="680" y="130" width="80" height="40" as="geometry" />
        </mxCell>
        <mxCell id="P0Eb2PS_qX3mCFITCUno-7" style="edgeStyle=orthogonalEdgeStyle;rounded=0;orthogonalLoop=1;jettySize=auto;html=1;entryX=0;entryY=0.5;entryDx=0;entryDy=0;" edge="1" parent="1" source="P0Eb2PS_qX3mCFITCUno-3" target="P0Eb2PS_qX3mCFITCUno-6">
          <mxGeometry relative="1" as="geometry" />
        </mxCell>
        <mxCell id="P0Eb2PS_qX3mCFITCUno-3" value="Sensor" style="rounded=0;whiteSpace=wrap;html=1;" vertex="1" parent="1">
          <mxGeometry x="680" y="190" width="80" height="40" as="geometry" />
        </mxCell>
        <mxCell id="P0Eb2PS_qX3mCFITCUno-16" style="edgeStyle=orthogonalEdgeStyle;rounded=0;orthogonalLoop=1;jettySize=auto;html=1;entryX=-0.008;entryY=0.7;entryDx=0;entryDy=0;entryPerimeter=0;" edge="1" parent="1" source="P0Eb2PS_qX3mCFITCUno-4" target="P0Eb2PS_qX3mCFITCUno-6">
          <mxGeometry relative="1" as="geometry" />
        </mxCell>
        <mxCell id="P0Eb2PS_qX3mCFITCUno-4" value="Sensor" style="rounded=0;whiteSpace=wrap;html=1;" vertex="1" parent="1">
          <mxGeometry x="680" y="260" width="80" height="40" as="geometry" />
        </mxCell>
        <mxCell id="P0Eb2PS_qX3mCFITCUno-17" style="edgeStyle=orthogonalEdgeStyle;rounded=0;orthogonalLoop=1;jettySize=auto;html=1;entryX=0;entryY=0.75;entryDx=0;entryDy=0;" edge="1" parent="1" source="P0Eb2PS_qX3mCFITCUno-5" target="P0Eb2PS_qX3mCFITCUno-6">
          <mxGeometry relative="1" as="geometry" />
        </mxCell>
        <mxCell id="P0Eb2PS_qX3mCFITCUno-5" value="Sensor" style="rounded=0;whiteSpace=wrap;html=1;" vertex="1" parent="1">
          <mxGeometry x="680" y="320" width="80" height="40" as="geometry" />
        </mxCell>
        <mxCell id="P0Eb2PS_qX3mCFITCUno-11" style="edgeStyle=orthogonalEdgeStyle;rounded=0;orthogonalLoop=1;jettySize=auto;html=1;entryX=0;entryY=0.5;entryDx=0;entryDy=0;" edge="1" parent="1" source="P0Eb2PS_qX3mCFITCUno-6" target="P0Eb2PS_qX3mCFITCUno-9">
          <mxGeometry relative="1" as="geometry" />
        </mxCell>
        <mxCell id="P0Eb2PS_qX3mCFITCUno-6" value="Temp System&lt;br&gt;-Stor" style="rounded=0;whiteSpace=wrap;html=1;" vertex="1" parent="1">
          <mxGeometry x="980" y="170" width="240" height="120" as="geometry" />
        </mxCell>
        <mxCell id="P0Eb2PS_qX3mCFITCUno-27" style="edgeStyle=orthogonalEdgeStyle;rounded=0;orthogonalLoop=1;jettySize=auto;html=1;entryX=1;entryY=0.5;entryDx=0;entryDy=0;" edge="1" parent="1" source="P0Eb2PS_qX3mCFITCUno-9" target="P0Eb2PS_qX3mCFITCUno-20">
          <mxGeometry relative="1" as="geometry" />
        </mxCell>
        <mxCell id="P0Eb2PS_qX3mCFITCUno-9" value="UI&lt;br&gt;- BIT MAP&lt;br&gt;- MAX/MIN" style="rounded=0;whiteSpace=wrap;html=1;" vertex="1" parent="1">
          <mxGeometry x="1610" y="200" width="120" height="60" as="geometry" />
        </mxCell>
        <mxCell id="P0Eb2PS_qX3mCFITCUno-12" value="APIs HTTP" style="text;html=1;align=center;verticalAlign=middle;resizable=0;points=[];autosize=1;strokeColor=none;fillColor=none;" vertex="1" parent="1">
          <mxGeometry x="1280" y="210" width="80" height="20" as="geometry" />
        </mxCell>
        <mxCell id="P0Eb2PS_qX3mCFITCUno-18" style="edgeStyle=orthogonalEdgeStyle;rounded=0;orthogonalLoop=1;jettySize=auto;html=1;" edge="1" parent="1" source="P0Eb2PS_qX3mCFITCUno-13" target="P0Eb2PS_qX3mCFITCUno-15">
          <mxGeometry relative="1" as="geometry" />
        </mxCell>
        <mxCell id="P0Eb2PS_qX3mCFITCUno-13" value="Gateway" style="rounded=0;whiteSpace=wrap;html=1;" vertex="1" parent="1">
          <mxGeometry x="910" y="370" width="80" height="80" as="geometry" />
        </mxCell>
        <mxCell id="P0Eb2PS_qX3mCFITCUno-19" style="edgeStyle=orthogonalEdgeStyle;rounded=0;orthogonalLoop=1;jettySize=auto;html=1;entryX=1;entryY=0.5;entryDx=0;entryDy=0;" edge="1" parent="1" source="P0Eb2PS_qX3mCFITCUno-14" target="P0Eb2PS_qX3mCFITCUno-15">
          <mxGeometry relative="1" as="geometry" />
        </mxCell>
        <mxCell id="P0Eb2PS_qX3mCFITCUno-14" value="Datastore&lt;br&gt;Log based append only&lt;br&gt;Cassandra" style="rounded=0;whiteSpace=wrap;html=1;" vertex="1" parent="1">
          <mxGeometry x="1220" y="345" width="140" height="130" as="geometry" />
        </mxCell>
        <mxCell id="P0Eb2PS_qX3mCFITCUno-15" value="Queue" style="shape=process;whiteSpace=wrap;html=1;backgroundOutline=1;" vertex="1" parent="1">
          <mxGeometry x="1050" y="380" width="120" height="60" as="geometry" />
        </mxCell>
        <mxCell id="P0Eb2PS_qX3mCFITCUno-21" style="edgeStyle=orthogonalEdgeStyle;rounded=0;orthogonalLoop=1;jettySize=auto;html=1;entryX=1;entryY=0.75;entryDx=0;entryDy=0;exitX=0.5;exitY=0;exitDx=0;exitDy=0;" edge="1" parent="1" source="P0Eb2PS_qX3mCFITCUno-24" target="P0Eb2PS_qX3mCFITCUno-15">
          <mxGeometry relative="1" as="geometry" />
        </mxCell>
        <mxCell id="P0Eb2PS_qX3mCFITCUno-20" value="In-Memory&lt;br&gt;Datastore&lt;br&gt;Redis" style="rounded=0;whiteSpace=wrap;html=1;" vertex="1" parent="1">
          <mxGeometry x="1240" y="530" width="130" height="90" as="geometry" />
        </mxCell>
        <mxCell id="P0Eb2PS_qX3mCFITCUno-23" value="&lt;h1&gt;Schema&lt;/h1&gt;&lt;div&gt;- Location: value&lt;/div&gt;&lt;div&gt;- Area&#39;s : Max/ Min&lt;/div&gt;" style="text;html=1;strokeColor=none;fillColor=none;spacing=5;spacingTop=-20;whiteSpace=wrap;overflow=hidden;rounded=0;" vertex="1" parent="1">
          <mxGeometry x="1237.5" y="630" width="165" height="105" as="geometry" />
        </mxCell>
        <mxCell id="P0Eb2PS_qX3mCFITCUno-25" style="edgeStyle=orthogonalEdgeStyle;rounded=0;orthogonalLoop=1;jettySize=auto;html=1;entryX=0;entryY=0.5;entryDx=0;entryDy=0;" edge="1" parent="1" source="P0Eb2PS_qX3mCFITCUno-24" target="P0Eb2PS_qX3mCFITCUno-20">
          <mxGeometry relative="1" as="geometry" />
        </mxCell>
        <mxCell id="P0Eb2PS_qX3mCFITCUno-24" value="Service" style="rounded=0;whiteSpace=wrap;html=1;" vertex="1" parent="1">
          <mxGeometry x="1080" y="545" width="120" height="60" as="geometry" />
        </mxCell>
        <mxCell id="P0Eb2PS_qX3mCFITCUno-26" value="Samza&lt;br&gt;- RockDB" style="rounded=0;whiteSpace=wrap;html=1;" vertex="1" parent="1">
          <mxGeometry x="1250" y="740" width="120" height="60" as="geometry" />
        </mxCell>
        <mxCell id="P0Eb2PS_qX3mCFITCUno-28" value="Web service" style="rounded=0;whiteSpace=wrap;html=1;" vertex="1" parent="1">
          <mxGeometry x="1440" y="210" width="120" height="60" as="geometry" />
        </mxCell>
      </root>
    </mxGraphModel>
  </diagram>
</mxfile>
